<svg xmlns="http://www.w3.org/2000/svg" width="25" height="23.143" viewBox="0 0 25 23.143">
  <g id="Grupo_2575" data-name="Grupo 2575" transform="translate(-44 -403.857)">
    <g id="Grupo_2463" data-name="Grupo 2463" transform="translate(-7059 -2170.26)">
      <g id="Unión_5" data-name="Unión 5" transform="translate(7103 2570.26)" fill="#fff" stroke-linecap="round" stroke-linejoin="round">
        <path d="M 18.99971771240234 26.00037574768066 L 5.999997138977051 26.00037574768066 C 3.242986917495728 26.00037574768066 0.9999969601631165 23.75738525390625 0.9999969601631165 21.00037574768066 L 0.9999969601631165 9.857194900512695 C 0.9999969601631165 7.100185394287109 3.242986917495728 4.857195377349854 5.999997138977051 4.857195377349854 L 18.99971771240234 4.857195377349854 C 21.75672721862793 4.857195377349854 23.99971771240234 7.100185394287109 23.99971771240234 9.857194900512695 L 23.99971771240234 21.00037574768066 C 23.99971771240234 23.75738525390625 21.75672721862793 26.00037574768066 18.99971771240234 26.00037574768066 Z" stroke="none"/>
        <path d="M 5.999996185302734 5.857194900512695 C 3.794387817382812 5.857194900512695 1.999996185302734 7.651584625244141 1.999996185302734 9.857194900512695 L 1.999996185302734 21.00037574768066 C 1.999996185302734 23.20598602294922 3.794387817382812 25.00037574768066 5.999996185302734 25.00037574768066 L 18.99971771240234 25.00037574768066 C 21.20532608032227 25.00037574768066 22.99971771240234 23.20598602294922 22.99971771240234 21.00037574768066 L 22.99971771240234 9.857194900512695 C 22.99971771240234 7.651584625244141 21.20532608032227 5.857194900512695 18.99971771240234 5.857194900512695 L 5.999996185302734 5.857194900512695 M 5.999996185302734 3.857194900512695 L 18.99971771240234 3.857194900512695 C 22.31342697143555 3.857194900512695 24.99971771240234 6.543485641479492 24.99971771240234 9.857194900512695 L 24.99971771240234 21.00037574768066 C 24.99971771240234 24.31408500671387 22.31342697143555 27.00037574768066 18.99971771240234 27.00037574768066 L 5.999996185302734 27.00037574768066 C 2.686286926269531 27.00037574768066 -3.814697265625e-06 24.31408500671387 -3.814697265625e-06 21.00037574768066 L -3.814697265625e-06 9.857194900512695 C -3.814697265625e-06 6.543485641479492 2.686286926269531 3.857194900512695 5.999996185302734 3.857194900512695 Z" stroke="none" fill="#238597"/>
      </g>
    </g>
    <path id="Trazado_3935" data-name="Trazado 3935" d="M7192.855,2671.655l4.588,4.259a4.038,4.038,0,0,0,2.656,1.033,4.215,4.215,0,0,0,2.61-1.033l4.259-4.259" transform="translate(-7143.412 -2262.572)" fill="none" stroke="#238597" stroke-linecap="round" stroke-width="2"/>
  </g>
</svg>
