<svg xmlns="http://www.w3.org/2000/svg" width="24.999" height="27" viewBox="0 0 24.999 27">
  <g id="Grupo_2574" data-name="Grupo 2574" transform="translate(-44 -328)">
    <g id="Grupo_2463" data-name="Grupo 2463" transform="translate(-7059 -2242.26)">
      <g id="Unión_5" data-name="Unión 5" transform="translate(7103 2570.26)" fill="#fff" stroke-linecap="round" stroke-linejoin="round">
        <path d="M 18.99990081787109 26 L 6.00029993057251 26 C 3.243129968643188 26 1 23.75728034973145 1 21.00060081481934 L 1 9.856800079345703 C 1 7.100120067596436 3.243129968643188 4.857399940490723 6.00029993057251 4.857399940490723 L 8.135890007019043 4.857399940490723 L 8.994560241699219 4.857399940490723 L 9.1243896484375 4.008600234985352 C 9.252209663391113 3.17300009727478 9.663749694824219 2.408119916915894 10.28320026397705 1.854869961738586 C 10.90042972564697 1.303599953651428 11.68774032592773 1 12.50010013580322 1 C 13.31245994567871 1 14.09976005554199 1.303599953651428 14.71699047088623 1.854869961738586 C 15.33644008636475 2.408119916915894 15.74796962738037 3.172990083694458 15.87578964233398 4.008600234985352 L 16.00561904907227 4.857399940490723 L 16.86429023742676 4.857399940490723 L 18.99990081787109 4.857399940490723 C 21.7565803527832 4.857399940490723 23.99930000305176 7.100120067596436 23.99930000305176 9.856800079345703 L 23.99930000305176 21.00060081481934 C 23.99930000305176 23.75728034973145 21.7565803527832 26 18.99990081787109 26 Z" stroke="none"/>
        <path d="M 18.99990081787109 25 C 21.20517921447754 25 22.99930000305176 23.20587921142578 22.99930000305176 21.00060081481934 L 22.99930000305176 9.856800079345703 C 22.99930000305176 7.651519775390625 21.20517921447754 5.857399940490723 18.99990081787109 5.857399940490723 L 16.86429023742676 5.857399940490723 C 15.87648963928223 5.857399940490723 15.03664016723633 5.136250019073486 14.88728046417236 4.159810066223145 C 14.69585990905762 2.908329963684082 13.6919002532959 2 12.50010013580322 2 C 11.30828952789307 2 10.30432033538818 2.908329963684082 10.11289978027344 4.159810066223145 C 9.963540077209473 5.136250019073486 9.123689651489258 5.857399940490723 8.135890007019043 5.857399940490723 L 6.00029993057251 5.857399940490723 C 3.794529914855957 5.857399940490723 2 7.651519775390625 2 9.856800079345703 L 2 21.00060081481934 C 2 23.20587921142578 3.794529914855957 25 6.00029993057251 25 L 18.99990081787109 25 M 18.99990081787109 27 L 6.00029993057251 27 C 2.686500072479248 27 1.525878090546939e-09 24.31439971923828 1.525878090546939e-09 21.00060081481934 L 1.525878090546939e-09 9.856800079345703 C 1.525878090546939e-09 6.543900012969971 2.686500072479248 3.857399940490723 6.00029993057251 3.857399940490723 L 8.135890007019043 3.857399940490723 C 8.470230102539062 1.671620011329651 10.29662036895752 -1.77635683940025e-15 12.50010013580322 -1.77635683940025e-15 C 14.70357990264893 -1.77635683940025e-15 16.52994918823242 1.671620011329651 16.86429023742676 3.857399940490723 L 18.99990081787109 3.857399940490723 C 22.31369972229004 3.857399940490723 24.99930000305176 6.543900012969971 24.99930000305176 9.856800079345703 L 24.99930000305176 21.00060081481934 C 24.99930000305176 24.31439971923828 22.31369972229004 27 18.99990081787109 27 Z" stroke="none" fill="#238597"/>
      </g>
      <circle id="Elipse_465" data-name="Elipse 465" cx="1.5" cy="1.5" r="1.5" transform="translate(7114 2573.26)" fill="#238597"/>
    </g>
    <g id="Grupo_2464" data-name="Grupo 2464" transform="translate(-301.778 227.366)">
      <path id="Trazado_3445" data-name="Trazado 3445" d="M.5,5.386a4.886,4.886,0,1,1,9.773,0" transform="translate(353.022 117.146)" fill="none" stroke="#238597" stroke-linecap="round" stroke-width="2"/>
      <g id="Elipse_410" data-name="Elipse 410" transform="translate(354.73 109)" fill="none" stroke="#238597" stroke-width="2">
        <circle cx="3.678" cy="3.678" r="3.678" stroke="none"/>
        <circle cx="3.678" cy="3.678" r="2.678" fill="none"/>
      </g>
    </g>
  </g>
</svg>
