<svg xmlns="http://www.w3.org/2000/svg" width="24.999" height="27" viewBox="0 0 24.999 27">
  <g id="Grupo_2573" data-name="Grupo 2573" transform="translate(-44 -328)">
    <g id="Grupo_2463" data-name="Grupo 2463" transform="translate(-7059 -2242.26)">
      <g id="Unión_5" data-name="Unión 5" transform="translate(7103 2570.26)" fill="#fff" stroke-linecap="round" stroke-linejoin="round">
        <path d="M 18.99990081787109 26 L 6.00029993057251 26 C 3.243129968643188 26 1 23.75728034973145 1 21.00060081481934 L 1 9.856800079345703 C 1 7.100120067596436 3.243129968643188 4.857399940490723 6.00029993057251 4.857399940490723 L 8.135890007019043 4.857399940490723 L 8.994560241699219 4.857399940490723 L 9.1243896484375 4.008600234985352 C 9.252209663391113 3.17300009727478 9.663749694824219 2.408119916915894 10.28320026397705 1.854869961738586 C 10.90042972564697 1.303599953651428 11.68774032592773 1 12.50010013580322 1 C 13.31245994567871 1 14.09976005554199 1.303599953651428 14.71699047088623 1.854869961738586 C 15.33644008636475 2.408119916915894 15.74796962738037 3.172990083694458 15.87578964233398 4.008600234985352 L 16.00561904907227 4.857399940490723 L 16.86429023742676 4.857399940490723 L 18.99990081787109 4.857399940490723 C 21.7565803527832 4.857399940490723 23.99930000305176 7.100120067596436 23.99930000305176 9.856800079345703 L 23.99930000305176 21.00060081481934 C 23.99930000305176 23.75728034973145 21.7565803527832 26 18.99990081787109 26 Z" stroke="none"/>
        <path d="M 18.99990081787109 25 C 21.20517921447754 25 22.99930000305176 23.20587921142578 22.99930000305176 21.00060081481934 L 22.99930000305176 9.856800079345703 C 22.99930000305176 7.651519775390625 21.20517921447754 5.857399940490723 18.99990081787109 5.857399940490723 L 16.86429023742676 5.857399940490723 C 15.87648963928223 5.857399940490723 15.03664016723633 5.136250019073486 14.88728046417236 4.159810066223145 C 14.69585990905762 2.908329963684082 13.6919002532959 2 12.50010013580322 2 C 11.30828952789307 2 10.30432033538818 2.908329963684082 10.11289978027344 4.159810066223145 C 9.963540077209473 5.136250019073486 9.123689651489258 5.857399940490723 8.135890007019043 5.857399940490723 L 6.00029993057251 5.857399940490723 C 3.794529914855957 5.857399940490723 2 7.651519775390625 2 9.856800079345703 L 2 21.00060081481934 C 2 23.20587921142578 3.794529914855957 25 6.00029993057251 25 L 18.99990081787109 25 M 18.99990081787109 27 L 6.00029993057251 27 C 2.686500072479248 27 1.525878090546939e-09 24.31439971923828 1.525878090546939e-09 21.00060081481934 L 1.525878090546939e-09 9.856800079345703 C 1.525878090546939e-09 6.543900012969971 2.686500072479248 3.857399940490723 6.00029993057251 3.857399940490723 L 8.135890007019043 3.857399940490723 C 8.470230102539062 1.671620011329651 10.29662036895752 -1.77635683940025e-15 12.50010013580322 -1.77635683940025e-15 C 14.70357990264893 -1.77635683940025e-15 16.52994918823242 1.671620011329651 16.86429023742676 3.857399940490723 L 18.99990081787109 3.857399940490723 C 22.31369972229004 3.857399940490723 24.99930000305176 6.543900012969971 24.99930000305176 9.856800079345703 L 24.99930000305176 21.00060081481934 C 24.99930000305176 24.31439971923828 22.31369972229004 27 18.99990081787109 27 Z" stroke="none" fill="#238597"/>
      </g>
      <circle id="Elipse_465" data-name="Elipse 465" cx="1.5" cy="1.5" r="1.5" transform="translate(7114 2573.26)" fill="#238597"/>
    </g>
    <path id="Trazado_3938" data-name="Trazado 3938" d="M-5.482-.6v-4a3.6,3.6,0,0,1-1.5.857.444.444,0,0,1-.327-.147.475.475,0,0,1-.143-.341.385.385,0,0,1,.141-.33,3.118,3.118,0,0,1,.5-.272,3.706,3.706,0,0,0,.85-.527,3.6,3.6,0,0,0,.565-.62q.246-.343.321-.422A.384.384,0,0,1-4.8-6.482a.45.45,0,0,1,.374.18.788.788,0,0,1,.141.5V-.773q0,.883-.6.883A.552.552,0,0,1-5.32-.07.77.77,0,0,1-5.482-.6Zm4.816-.435H1.628A.836.836,0,0,1,2.151-.9a.459.459,0,0,1,.18.382.508.508,0,0,1-.143.365A.573.573,0,0,1,1.756,0H-1.479a.7.7,0,0,1-.514-.182.583.583,0,0,1-.185-.428,1.091,1.091,0,0,1,.119-.42A1.5,1.5,0,0,1-1.8-1.441q.584-.606,1.055-1.039A6.927,6.927,0,0,1-.073-3.05a3.878,3.878,0,0,0,.6-.512,2.035,2.035,0,0,0,.365-.527,1.254,1.254,0,0,0,.125-.53.954.954,0,0,0-.134-.5.929.929,0,0,0-.365-.345,1.053,1.053,0,0,0-.5-.123,1.028,1.028,0,0,0-.905.505,2.192,2.192,0,0,0-.147.36,1.5,1.5,0,0,1-.233.453.463.463,0,0,1-.38.158.5.5,0,0,1-.365-.145.534.534,0,0,1-.145-.4,1.655,1.655,0,0,1,.136-.633,1.814,1.814,0,0,1,.406-.6,2.012,2.012,0,0,1,.686-.433,2.63,2.63,0,0,1,.973-.165,2.814,2.814,0,0,1,1.147.211,1.725,1.725,0,0,1,.541.387,1.789,1.789,0,0,1,.363.569,1.783,1.783,0,0,1,.13.67,1.875,1.875,0,0,1-.27.991,3.081,3.081,0,0,1-.552.7q-.281.253-.943.793a7.059,7.059,0,0,0-.907.839A2.5,2.5,0,0,0-.666-1.037ZM5.139-3.889a1.07,1.07,0,0,0,.7-.237.827.827,0,0,0,.292-.681A.814.814,0,0,0,5.9-5.39a.828.828,0,0,0-.628-.244,1.124,1.124,0,0,0-.442.075.711.711,0,0,0-.275.2,1.491,1.491,0,0,0-.191.316q-.09.193-.165.365a.309.309,0,0,1-.158.145.623.623,0,0,1-.264.053.456.456,0,0,1-.323-.143.505.505,0,0,1-.147-.38,1,1,0,0,1,.138-.481,1.756,1.756,0,0,1,.4-.481,2.033,2.033,0,0,1,.661-.367,2.661,2.661,0,0,1,.883-.138,2.463,2.463,0,0,1,.778.116,1.817,1.817,0,0,1,.611.336,1.452,1.452,0,0,1,.391.51,1.49,1.49,0,0,1,.132.624,1.423,1.423,0,0,1-.191.754,2.542,2.542,0,0,1-.547.613,2.423,2.423,0,0,1,.578.422,1.621,1.621,0,0,1,.354.525,1.616,1.616,0,0,1,.119.622,1.941,1.941,0,0,1-.16.773,1.973,1.973,0,0,1-.472.666,2.253,2.253,0,0,1-.74.457A2.618,2.618,0,0,1,5.293.11a2.267,2.267,0,0,1-.945-.189,2.176,2.176,0,0,1-.688-.472,2.151,2.151,0,0,1-.409-.587,1.273,1.273,0,0,1-.138-.5.54.54,0,0,1,.165-.411.574.574,0,0,1,.411-.156.437.437,0,0,1,.237.073.342.342,0,0,1,.149.174,2.958,2.958,0,0,0,.49.907.93.93,0,0,0,.736.3A1.107,1.107,0,0,0,5.827-.89a1.1,1.1,0,0,0,.417-.4A1.128,1.128,0,0,0,6.409-1.9,1.115,1.115,0,0,0,6.128-2.7,1.035,1.035,0,0,0,5.346-3q-.088,0-.272.018t-.237.018a.533.533,0,0,1-.374-.121.433.433,0,0,1-.132-.336.419.419,0,0,1,.158-.341.729.729,0,0,1,.47-.13Z" transform="translate(56 347)" fill="#238597" stroke="#238597" stroke-width="0.4"/>
  </g>
</svg>
